<svg width="16" height="22" viewBox="0 0 16 22" fill="none" xmlns="http://www.w3.org/2000/svg">
<path d="M13.4938 7.8125C14.1668 7.32443 14.668 6.63587 14.9257 5.84546C15.1834 5.05506 15.1843 4.20337 14.9282 3.41243C14.6722 2.62148 14.1724 1.93187 13.5005 1.44238C12.8285 0.952884 12.0189 0.68864 11.1875 0.6875H4.8125C3.98116 0.68864 3.1715 0.952884 2.49954 1.44238C1.82757 1.93187 1.32778 2.62148 1.07176 3.41243C0.815745 4.20337 0.816643 5.05506 1.07433 5.84546C1.33201 6.63587 1.83326 7.32443 2.50625 7.8125C2.00099 8.17639 1.58947 8.65518 1.30564 9.20939C1.0218 9.7636 0.873779 10.3773 0.873779 11C0.873779 11.6227 1.0218 12.2364 1.30564 12.7906C1.58947 13.3448 2.00099 13.8236 2.50625 14.1875C1.95973 14.5824 1.52378 15.1111 1.24018 15.7229C0.956589 16.3346 0.834851 17.009 0.886634 17.6813C0.938416 18.3536 1.16198 19.0013 1.53592 19.5625C1.90985 20.1236 2.42161 20.5793 3.02218 20.8859C3.62274 21.1924 4.29198 21.3397 4.96576 21.3134C5.63955 21.2872 6.2953 21.0883 6.8702 20.736C7.4451 20.3836 7.91986 19.8895 8.24902 19.301C8.57817 18.7125 8.75067 18.0493 8.75 17.375V14.0844C9.1587 14.4292 9.63336 14.6872 10.145 14.8426C10.6567 14.998 11.1947 15.0475 11.7261 14.9882C12.2576 14.9288 12.7713 14.7619 13.2361 14.4975C13.7009 14.233 14.107 13.8767 14.4296 13.4502C14.7522 13.0237 14.9845 12.536 15.1124 12.0168C15.2403 11.4976 15.2611 10.9577 15.1735 10.4302C15.086 9.90268 14.8919 9.39851 14.6031 8.94846C14.3143 8.49841 13.9368 8.1119 13.4938 7.8125ZM13.625 4.625C13.6225 5.27071 13.3649 5.88926 12.9083 6.34584C12.4518 6.80243 11.8332 7.06003 11.1875 7.0625H8.75V2.1875H11.1875C11.8332 2.18997 12.4518 2.44757 12.9083 2.90416C13.3649 3.36074 13.6225 3.9793 13.625 4.625ZM11.1875 13.4375C10.541 13.4375 9.92105 13.1807 9.46393 12.7236C9.00681 12.2665 8.75 11.6465 8.75 11C8.75 10.3535 9.00681 9.73355 9.46393 9.27643C9.92105 8.81931 10.541 8.5625 11.1875 8.5625C11.834 8.5625 12.454 8.81931 12.9111 9.27643C13.3682 9.73355 13.625 10.3535 13.625 11C13.625 11.6465 13.3682 12.2665 12.9111 12.7236C12.454 13.1807 11.834 13.4375 11.1875 13.4375Z" fill="#F2F2F7"/>
</svg>
