<svg width="27" height="27" viewBox="0 0 27 27" fill="none" xmlns="http://www.w3.org/2000/svg">
<path d="M13.4286 7.95239C10.0953 7.95239 7.33337 10.6667 7.33337 14.0476C7.33337 17.4286 10.0477 20.1429 13.4286 20.1429C16.8096 20.1429 19.5238 17.381 19.5238 14.0476C19.5238 10.7143 16.7619 7.95239 13.4286 7.95239ZM13.4286 17.9524C11.2858 17.9524 9.52385 16.1905 9.52385 14.0476C9.52385 11.9048 11.2858 10.1429 13.4286 10.1429C15.5715 10.1429 17.3334 11.9048 17.3334 14.0476C17.3334 16.1905 15.5715 17.9524 13.4286 17.9524Z" fill="#F2F2F7"/>
<path d="M19.7619 9.19048C20.5246 9.19048 21.1429 8.5722 21.1429 7.80953C21.1429 7.04685 20.5246 6.42857 19.7619 6.42857C18.9993 6.42857 18.381 7.04685 18.381 7.80953C18.381 8.5722 18.9993 9.19048 19.7619 9.19048Z" fill="#F2F2F7"/>
<path d="M23.3334 4.2381C22.0953 2.95239 20.3334 2.28572 18.3334 2.28572H8.52384C4.38098 2.28572 1.61908 5.04763 1.61908 9.19048V18.9524C1.61908 21 2.28575 22.7619 3.61908 24.0476C4.90479 25.2857 6.61908 25.9048 8.57146 25.9048H18.2857C20.3334 25.9048 22.0477 25.2381 23.2857 24.0476C24.5715 22.8095 25.2381 21.0476 25.2381 19V9.19048C25.2381 7.19048 24.5715 5.4762 23.3334 4.2381ZM23.1429 19C23.1429 20.4762 22.6191 21.6667 21.7619 22.4762C20.9048 23.2857 19.7143 23.7143 18.2857 23.7143H8.57146C7.14289 23.7143 5.95241 23.2857 5.09527 22.4762C4.23813 21.6191 3.80956 20.4286 3.80956 18.9524V9.19048C3.80956 7.76191 4.23813 6.57143 5.09527 5.71429C5.90479 4.90477 7.14289 4.4762 8.57146 4.4762H18.381C19.8096 4.4762 21 4.90477 21.8572 5.76191C22.6667 6.61905 23.1429 7.80953 23.1429 9.19048V19Z" fill="#F2F2F7"/>
</svg>
