<svg width="25" height="24" fill="none" xmlns="http://www.w3.org/2000/svg"><path d="M12.429 5.952c-3.334 0-6.096 2.715-6.096 6.096a6.077 6.077 0 0 0 6.096 6.095c3.38 0 6.095-2.762 6.095-6.095 0-3.334-2.762-6.096-6.095-6.096Zm0 10a3.922 3.922 0 0 1-3.905-3.904 3.922 3.922 0 0 1 3.905-3.905 3.922 3.922 0 0 1 3.904 3.905 3.922 3.922 0 0 1-3.904 3.904ZM18.762 7.19a1.381 1.381 0 1 0 0-2.761 1.381 1.381 0 0 0 0 2.761Z" fill="#F2F2F7"/><path d="M22.333 2.238c-1.238-1.286-3-1.952-5-1.952h-9.81C3.382.286.62 3.048.62 7.19v9.762c0 2.048.667 3.81 2 5.096 1.286 1.238 3 1.857 4.952 1.857h9.715c2.047 0 3.762-.667 5-1.857 1.285-1.238 1.952-3 1.952-5.048V7.19c0-2-.666-3.714-1.905-4.952ZM22.143 17c0 1.476-.524 2.667-1.381 3.476-.857.81-2.048 1.238-3.476 1.238H7.57c-1.428 0-2.619-.428-3.476-1.238-.857-.857-1.285-2.047-1.285-3.524V7.19c0-1.428.428-2.619 1.285-3.476.81-.81 2.048-1.238 3.476-1.238h9.81c1.429 0 2.619.429 3.476 1.286.81.857 1.286 2.048 1.286 3.428V17Z" fill="#F2F2F7"/></svg>