<svg width="24" height="24" fill="none" xmlns="http://www.w3.org/2000/svg"><g clip-path="url(#a)"><path fill-rule="evenodd" clip-rule="evenodd" d="M21.068 0A2.934 2.934 0 0 1 24 2.932v18.136A2.934 2.934 0 0 1 21.068 24H2.932A2.934 2.934 0 0 1 0 21.068V2.932A2.934 2.934 0 0 1 2.932 0h18.136ZM7.522 19.841V9.261H4.004v10.58h3.518Zm12.681 0v-6.067c0-3.25-1.735-4.762-4.049-4.762-1.866 0-2.702 1.026-3.17 1.747V9.26H9.469c.046.993 0 10.58 0 10.58h3.516v-5.909c0-.316.023-.632.116-.858.254-.632.833-1.286 1.805-1.286 1.272 0 1.781.97 1.781 2.392v5.661h3.517ZM5.787 4.16c-1.204 0-1.99.791-1.99 1.828 0 1.015.762 1.828 1.943 1.828h.023c1.226 0 1.99-.813 1.99-1.828C7.73 4.952 6.99 4.161 5.787 4.16Z" fill="#F2F2F7"/></g><defs><clipPath id="a"><path fill="#fff" d="M0 0h24v24H0z"/></clipPath></defs></svg>